<?xml version="1.0" encoding="UTF-8" standalone="no"?>
<!-- Created with Inkscape (http://www.inkscape.org/) -->

<svg
   xmlns:dc="http://purl.org/dc/elements/1.1/"
   xmlns:cc="http://creativecommons.org/ns#"
   xmlns:rdf="http://www.w3.org/1999/02/22-rdf-syntax-ns#"
   xmlns:svg="http://www.w3.org/2000/svg"
   xmlns="http://www.w3.org/2000/svg"
   xmlns:sodipodi="http://sodipodi.sourceforge.net/DTD/sodipodi-0.dtd"
   xmlns:inkscape="http://www.inkscape.org/namespaces/inkscape"
   width="419.55499mm"
   height="462.69327mm"
   viewBox="0 0 419.55499 462.69327"
   version="1.1"
   id="svg8"
   inkscape:version="0.92.3 (2405546, 2018-03-11)"
   sodipodi:docname="dadess_dene.svg">
  <defs
     id="defs2">
    <filter
       style="color-interpolation-filters:sRGB;"
       inkscape:label="Drop Shadow"
       id="filter4878">
      <feFlood
         flood-opacity="0.498039"
         flood-color="rgb(0,0,0)"
         result="flood"
         id="feFlood4868" />
      <feComposite
         in="flood"
         in2="SourceGraphic"
         operator="in"
         result="composite1"
         id="feComposite4870" />
      <feGaussianBlur
         in="composite1"
         stdDeviation="3"
         result="blur"
         id="feGaussianBlur4872" />
      <feOffset
         dx="6"
         dy="6"
         result="offset"
         id="feOffset4874" />
      <feComposite
         in="SourceGraphic"
         in2="offset"
         operator="over"
         result="fbSourceGraphic"
         id="feComposite4876" />
      <feColorMatrix
         result="fbSourceGraphicAlpha"
         in="fbSourceGraphic"
         values="0 0 0 -1 0 0 0 0 -1 0 0 0 0 -1 0 0 0 0 1 0"
         id="feColorMatrix4880" />
      <feFlood
         id="feFlood4882"
         flood-opacity="0.498039"
         flood-color="rgb(0,0,0)"
         result="flood"
         in="fbSourceGraphic" />
      <feComposite
         in2="fbSourceGraphic"
         id="feComposite4884"
         in="flood"
         operator="out"
         result="composite1" />
      <feGaussianBlur
         id="feGaussianBlur4886"
         in="composite1"
         stdDeviation="3"
         result="blur" />
      <feOffset
         id="feOffset4888"
         dx="6"
         dy="6"
         result="offset" />
      <feComposite
         in2="fbSourceGraphic"
         id="feComposite4890"
         in="offset"
         operator="atop"
         result="fbSourceGraphic" />
      <feColorMatrix
         result="fbSourceGraphicAlpha"
         in="fbSourceGraphic"
         values="0 0 0 -1 0 0 0 0 -1 0 0 0 0 -1 0 0 0 0 1 0"
         id="feColorMatrix4892" />
      <feFlood
         id="feFlood4894"
         flood-opacity="0.498039"
         flood-color="rgb(0,0,0)"
         result="flood"
         in="fbSourceGraphic" />
      <feComposite
         in2="fbSourceGraphic"
         id="feComposite4896"
         in="flood"
         operator="out"
         result="composite1" />
      <feGaussianBlur
         id="feGaussianBlur4898"
         in="composite1"
         stdDeviation="3"
         result="blur" />
      <feOffset
         id="feOffset4900"
         dx="6"
         dy="6"
         result="offset" />
      <feComposite
         in2="fbSourceGraphic"
         id="feComposite4902"
         in="offset"
         operator="atop"
         result="fbSourceGraphic" />
      <feColorMatrix
         result="fbSourceGraphicAlpha"
         in="fbSourceGraphic"
         values="0 0 0 -1 0 0 0 0 -1 0 0 0 0 -1 0 0 0 0 1 0"
         id="feColorMatrix4904" />
      <feFlood
         id="feFlood4906"
         flood-opacity="0.498039"
         flood-color="rgb(0,0,0)"
         result="flood"
         in="fbSourceGraphic" />
      <feComposite
         in2="fbSourceGraphic"
         id="feComposite4908"
         in="flood"
         operator="out"
         result="composite1" />
      <feGaussianBlur
         id="feGaussianBlur4910"
         in="composite1"
         stdDeviation="3"
         result="blur" />
      <feOffset
         id="feOffset4912"
         dx="6"
         dy="6"
         result="offset" />
      <feComposite
         in2="fbSourceGraphic"
         id="feComposite4914"
         in="offset"
         operator="atop"
         result="composite2" />
    </filter>
    <filter
       y="-0.25"
       height="1.5"
       inkscape:menu-tooltip="Darkens the edge with an inner blur and adds a flexible glow"
       inkscape:menu="Shadows and Glows"
       inkscape:label="Dark and Glow"
       style="color-interpolation-filters:sRGB;"
       id="filter5095">
      <feGaussianBlur
         stdDeviation="5"
         result="result6"
         id="feGaussianBlur5085" />
      <feComposite
         result="result8"
         in="SourceGraphic"
         operator="atop"
         in2="result6"
         id="feComposite5087" />
      <feComposite
         result="result9"
         operator="over"
         in2="SourceAlpha"
         in="result8"
         id="feComposite5089" />
      <feColorMatrix
         values="1 0 0 0 0 0 1 0 0 0 0 0 1 0 0 0 0 0 1 0 "
         result="result10"
         id="feColorMatrix5091" />
      <feBlend
         in="result10"
         mode="normal"
         in2="result6"
         id="feBlend5093" />
    </filter>
  </defs>
  <sodipodi:namedview
     id="base"
     pagecolor="#ffffff"
     bordercolor="#666666"
     borderopacity="1.0"
     inkscape:pageopacity="0.0"
     inkscape:pageshadow="2"
     inkscape:zoom="0.49497475"
     inkscape:cx="548.7516"
     inkscape:cy="847.16026"
     inkscape:document-units="mm"
     inkscape:current-layer="layer1"
     showgrid="false"
     inkscape:window-width="1630"
     inkscape:window-height="924"
     inkscape:window-x="174"
     inkscape:window-y="157"
     inkscape:window-maximized="0" />
  <metadata
     id="metadata5">
    <rdf:RDF>
      <cc:Work
         rdf:about="">
        <dc:format>image/svg+xml</dc:format>
        <dc:type
           rdf:resource="http://purl.org/dc/dcmitype/StillImage" />
        <dc:title />
      </cc:Work>
    </rdf:RDF>
  </metadata>
  <g
     inkscape:label="Layer 1"
     inkscape:groupmode="layer"
     id="layer1"
     transform="translate(106.21201,100.65616)"
     style="display:inline">
    <ellipse
       style="fill:#ffffff;fill-opacity:1;stroke:none;stroke-width:1.73747683;stroke-miterlimit:4;stroke-dasharray:none;stroke-opacity:1"
       id="path5097"
       cx="105.14195"
       cy="152.96986"
       rx="203.32346"
       ry="201.81154" />
    <path
       d="m 108.43724,-48.517789 c 21.37264,0.10442 48.20345,6.06776 69.52528,14.50901 22.34913,8.858932 43.39157,21.764923 61.01913,38.1761024 80.00416,74.4359396 87.08228,200.7526566 13.65105,282.3739566 -17.67836,19.65391 -37.08391,34.11212 -60.72279,45.76222 -32.3059,15.93988 -61.97867,20.92673 -97.628901,20.50904 C 77.263046,352.6037 54.651456,347.789 38.491442,342.34777 -73.765001,304.45106 -127.18107,179.92926 -81.051962,72.027503 c 23.551388,-55.12916 70.727541,-96.200864 128.261238,-112.612052 14.22396,-4.06399 25.22496,-6.46851 36.81862,-7.445 10.216423,-0.45438 14.001013,-0.47131 24.409344,-0.48824 z m 0.45156,9.03391 m -4.0781,-60.728441 c 0,0 -4.69052,15.067811 -4.69052,15.067811 0,0 -4.724391,13.81475 -4.724391,13.81475 -1.74413,-6.73381 -10.216423,-22.51564 -20.712243,-26.99732 0.26246,5.7545 2.47508,9.48547 2.51177,17.57958 0.0339,6.764852 -0.5588,10.58613 -3.01695,16.95023 -0.73095,1.88524 -2.35373,5.96616 -3.66041,7.34341 -1.76107,1.86548 -7.65385,2.49483 -10.27005,2.96332 0,0 -21.338774,5.6529 -21.338774,5.6529 -16.682112,4.88243 -41.2466828,17.05465 -55.230763,27.293648 0,0 -15.045226,11.4215064 -15.045226,11.4215064 -32.740524,27.8524476 -56.607999,64.4255376 -67.625929,106.0532176 -3.155234,11.858947 -6.937004,30.556127 -7.078114,42.694467 0,0 0,23.22966 0,23.22966 0.0169,7.18536 2.30292,22.81197 3.76765,30.13562 5.142082,25.76118 14.78277,50.01812 28.905137,72.20356 13.213612,20.77151 29.636085,38.05475 48.917463,53.22699 37.62295,29.63044 85.532896,44.01809 133.05618,43.45929 0,0 6.27661,-0.57573 6.27661,-0.57573 14.95774,-1.01035 26.11678,-2.33679 40.79513,-5.99721 31.81765,-7.96993 61.90812,-24.2259 86.61097,-45.71142 0,0 11.31426,-11.128 11.31426,-11.128 19.52691,-19.93331 33.03686,-40.96446 43.9165,-66.55066 6.69429,-15.78183 12.62094,-38.17611 14.33121,-55.25052 0,0 0.78457,-11.9295 0.78457,-11.9295 0,0 0.57574,-6.27661 0.57574,-6.27661 0.18908,-16.21927 -0.85514,-32.40468 -4.04706,-48.34455 C 299.98101,64.317203 273.65539,19.497603 237.23752,-9.8026386 214.22517,-28.322018 198.1329,-36.763269 170.70943,-46.965579 c 0,0 -21.9653,-6.01696 -21.9653,-6.01696 -2.9464,-0.64629 -8.26345,-0.99624 -10.16562,-3.42052 -0.92287,-1.20227 -2.65006,-5.77144 -3.20604,-7.39421 -1.32644,-3.80152 -2.54564,-9.1722 -2.84197,-13.182568 -0.33302,-4.885252 2.31704,-14.983142 3.03388,-20.091352 -7.02732,2.68393 -13.35472,11.80533 -16.84298,16.96716 -1.56915,2.5287 -3.73097,6.158072 -4.49861,8.77427 0,0 -4.89655,-16.3237 -4.89655,-16.3237 0,0 -4.51554,-12.558861 -4.51554,-12.558861 z m -18.200474,68.297621 c -7.51556,2.788351 -7.11481,14.751722 -7.58612,21.485528 0,0 -0.57291,6.2766074 -0.57291,6.2766074 -0.0197,2.40735 -0.36688,7.289787 1.16558,9.141157 1.7272,2.12513 7.09787,1.72437 9.5024,1.09784 4.933233,-1.32644 5.458163,-5.79117997 5.630323,-10.238997 0,0 -2.020713,-19.4619984 -2.020713,-19.4619984 -0.73377,-3.87208 -1.37724,-8.300137 -6.11856,-8.300137 z m -24.4799,1.72437 c -4.79212,1.413931 -13.3519,6.8721 -17.57111,9.838248 -1.778004,1.255886 -4.464754,3.225793 -4.744154,5.52872 -0.24271,2.040462 1.7272,4.481679 2.63313,6.2766084 1.255894,2.528705 1.969914,5.441231 2.650064,8.16184603 1.36031,5.37349997 1.91911,14.89564957 3.80153,18.83546957 1.32361,2.7573 3.62654,5.17876 6.95676,4.46474 1.67357,-0.36689 4.19945,-1.93604 5.64725,-2.91252 8.36787,-5.63315 10.80909,-11.5795496 12.9709,-21.0142206 0.80151,-3.575747 1.41111,-5.669831 1.36031,-9.4177334 0,0 0,-7.535315 0,-7.535315 -1.28975,-7.168428 -5.7545,-13.498663 -13.70468,-12.225843 z M 24.4735,-9.5232396 c -8.40174,1.552219 -18.6887104,6.27943 -19.3152404,16.044293 -0.24554,3.7337896 2.47508,11.7037296 3.36408,15.6971696 1.9191004,8.54566 2.6669904,22.04432 14.6981004,20.45824 10.59742,-1.41393 21.426266,-4.55224 21.948376,-17.31994 0.12135,-3.03388 -0.29634,-4.11479 -0.5588,-6.90596 C 43.529106,6.8540734 39.693712,-11.146014 24.4735,-9.5232396 Z M 81.586686,10.009313 c -4.67077,1.30951 -10.02451,3.99344 -12.37542,8.44125 -2.28599,4.30952 -0.89182,8.07436 -0.34995,12.55603 0,0 0.45437,8.79121 0.45437,8.79121 0.83538,5.31987 2.83915,8.68395 5.63032,13.18539 2.04046,3.25966 7.09505,11.30015 11.03487,12.03392 4.74132,0.87207 5.02072,-6.54189 4.93323,-9.52215 0,0 0,-18.20894 0,-18.20894 0,0 -0.64347,-16.95022 -0.64347,-16.95022 -0.68015,-5.18159 -2.44121,-10.7272396 -8.68395,-10.32649 z m -102.299676,9.99347 c -3.64348,0.80151 -7.65385,1.72719 -10.078135,4.79776 -2.596438,3.27659 -3.364081,8.99723 -3.730969,13.11484 -0.313266,3.50519 -0.697087,4.3575 -0.626532,8.16185 0.225777,9.38104 3.242726,20.19577 14.435636,20.70095 8.350929,0.34713 9.603999,-4.22204 12.7084292,-10.65669 2.9464,-6.08752 5.61339,-12.34719 7.54942997,-18.83547 1.06397,-3.53905 2.87584003,-9.81848 0.6096,-13.11483 C -3.2801708,19.130713 -15.257651,19.235133 -20.71299,20.002783 Z m 71.548816,13.32368 c -4.18535,1.22202 -12.903174,9.24557 -17.573946,12.31332 -2.35373,1.55222 -5.40454,3.08751 -6.06776,6.08752 -0.53905,2.3876 0.94262,5.44123 2.00377,7.53249 2.21544,4.37726 7.882452,11.75453 11.593662,14.92952 1.90217,1.63971 4.916304,3.36691 7.532494,2.96615 3.80153,-0.5588 6.53908,-4.79776 8.33401,-7.84858 1.65664,-2.82504 5.49203,-8.92949 5.87585,-11.9295 0.36406,-2.92946 -2.52871,-10.18538 -3.66324,-13.18539 -1.51553,-3.99344 -3.01412,-10.48171 -8.03484,-10.86553 z M 6.9023896,45.848633 c -5.0743504,1.41393 -8.0913004,5.28601 -10.6708004,9.64633 -5.1957,8.77144 -9.6406902,23.94368 -6.22299,33.90327 1.61996,4.72439 7.12892,16.095097 13.12613,15.381077 2.7375504,-0.31327 6.7817804,-3.55881 8.7347608,-5.441227 5.45816,-5.28319 16.1092,-18.92296 15.60402,-26.89289 -0.36688,-5.85892 -4.21921,-9.85236 -7.37444,-14.44128 -3.12137,-4.51555 -6.99063,-12.13835 -13.1966804,-12.15528 z m 62.1338964,13.20232 c -7.7244,3.19193 -8.71782,13.08097 -12.46572,19.67367 -2.63313,4.60303 -5.28319,6.12138 -4.27284,11.9295 1.1176,6.41772 8.45536,17.142137 14.85615,19.061237 2.43839,0.73096 5.14207,0.20885 7.52967,-0.50517 3.27941,-0.97649 7.41113,-3.01695 9.64068,-5.6529 6.55601,-7.673597 4.6369,-23.334077 0.62936,-31.738637 -2.66699,-5.58234 -8.9436,-13.84861 -15.9173,-12.7677 z m -111.088051,5.58234 c -4.619967,1.83162 -6.485451,5.23239 -8.125159,9.69714 -3.730969,10.2023 -2.40735,29.142187 11.889994,29.506257 4.010369,0.0875 5.647254,-0.31327 9.41491,-1.69051 9.8834,-3.646297 12.412109,-9.855167 11.26064,-19.653907 -0.31326,-2.70368 -1.09784,-6.48827 -2.56257,-8.7912 -3.20604,-5.02354 -16.004785,-10.09789 -21.877815,-9.06778 z m 71.565745,19.67085 c -3.76766,2.12795 -11.48924,13.56921 -14.54006,17.650127 -1.18533,1.58609 -3.90594,4.8655 -3.87208,6.88903 0.0706,2.47508 3.31328,3.59268 5.21263,4.41112 5.37068,2.31986 9.06778,5.86174 15.06499,3.15806 6.694302,-3.00001 11.731956,-12.95961 11.923866,-20.108277 0.0339,-2.11102 0.12136,-4.98968 -0.818444,-6.90597 -2.09408,-4.15147 -8.683962,-5.96616 -12.970902,-5.09409 z m -93.533872,2.42428 c -6.660428,2.87866 -9.239933,9.10447 -10.320841,15.852377 -0.138289,1.69333 -0.488243,3.29635 0,5.02355 0.976486,4.8147 10.162797,8.96335 14.715031,7.65667 3.798702,-1.09784 10.563553,-7.88245 10.49582,-12.05086 -0.05362,-2.80811 -2.703682,-7.114807 -4.272834,-9.417737 -2.475084,-3.60961 -5.875854,-7.74416 -10.617176,-7.064 z M 48.970336,101.27412 c -4.49861,2.23237 -6.852344,10.55226 -8.683964,15.12143 -3.17217,7.96993 -5.768612,11.90975 -4.42805,20.71788 0.75071,5.00661 2.21544,7.51556 6.81847,9.87211 2.283174,1.1684 3.781774,1.67358 6.273794,2.17875 2.89559,0.59267 5.82505,1.09784 8.78837,1.13453 3.20604,0.0339 8.48923,0.36689 11.03487,-1.79775 1.62277,-1.39417 2.00377,-3.73097 2.38759,-5.73756 0.71684,-3.71404 2.68675,-12.3472 1.76106,-15.69434 -1.44497,-5.33681 -7.68771,-12.88906 -11.46948,-16.95305 -3.0875,-3.31328 -7.60305,-9.05085 -12.48266,-8.842 z m 38.89295,2.49484 c -2.56257,1.14864 -3.4685,2.2493 -5.64725,3.90594 -3.40077,2.56257 -8.21265,5.26626 -8.64727,9.97653 -0.62935,6.66043 5.77143,18.01421 13.66799,14.98032 5.94359,-2.28599 4.9671,-8.63315 5.02072,-13.72443 0,0 0.52211,-8.16467 0.52211,-8.16467 -0.31326,-3.17217 -1.21919,-6.93983 -4.9163,-6.97369 z m -112.343936,0.99342 c 0,0 -14.435634,5.05741 -14.435634,5.05741 -3.973679,1.01035 -9.640688,1.58608 -12.011349,5.33681 -2.562572,4.04705 0.383821,13.81192 1.761062,18.18917 1.343375,4.28977 2.633128,11.59931 4.549412,15.06781 4.39419,7.9897 14.593677,11.56262 23.274809,11.91258 3.6971,0.13828 9.711249,-0.48825 11.9266892,-3.81846 2.40452,-3.59268 0.68015,-9.62658 0.62653,-13.74419 -0.0339,-3.38384 0.0169,-4.79495 0.45437,-8.16185 0,0 0.74789,-6.27943 0.74789,-6.27943 0.14111,-2.49202 -0.48824,-5.66701 -0.95955,-8.16185 -1.7243802,-9.13833 -5.1590102,-16.89942 -15.9342292,-15.398 z m -45.798915,12.15528 c -4.984033,2.58233 -6.048008,11.33684 -7.320827,16.42811 -2.808105,11.28322 -7.131739,22.20237 2.912526,31.28709 2.003773,1.81468 3.886191,3.0875 6.273785,4.34339 2.791171,1.44779 4.952988,2.51177 8.159025,2.65006 8.142092,0.34995 13.459147,-6.78179 13.792168,-14.42153 0.417688,-9.62657 -6.539073,-23.03774 -11.994417,-30.76497 -2.737549,-3.87208 -6.434652,-10.09788 -11.82226,-9.52215 z m 82.829205,4.76108 c -3.4854404,0.57573 -6.8692704,0.94262 -10.0414408,2.65006 -6.57294,3.55881 -10.42527,12.36694 -9.8326,19.69059 0.34713,4.49862 2.5795,13.7075 4.75825,17.57958 1.53529,2.73755 3.55598997,4.91913 6.9567604,4.5353 3.43464,-0.38382 6.5898804,-2.4779 9.4149104,-4.27283 8.71783,-5.54565 15.3077,-11.98313 15.06217,-22.86559 -0.26247,-10.9502 -4.0781,-18.81571 -16.31805,-17.31711 z m 70.292926,15.85238 c -7.70465,3.20886 -10.96431,12.73101 -14.36508,19.67366 -1.51553,3.06775 -4.0273,5.09128 -3.71403,8.78838 0.6096,6.88903 6.90596,12.43469 13.05839,14.63319 2.09126,0.75071 5.35374,1.53529 7.51556,0.68016 3.45157,-1.34338 3.73097,-7.04708 4.47886,-10.2898 1.89935,-8.26627 3.06774,-16.67365 1.81468,-25.11208 -0.76764,-5.11103 -2.87866,-9.45442 -8.78838,-8.37351 z m -44.559964,13.15152 c -6.939832,1.81187 -15.482672,8.59647 -14.297342,16.56641 0,0 4.60303,11.92951 4.60303,11.92951 1.7272,5.73756 4.72439,16.93611 12.832612,16.04429 5.091284,-0.53904 8.960544,-8.03767 10.755474,-12.27664 2.91252,-6.92289 5.78836,-19.21929 0.68015,-25.637 -1.88242,-2.3368 -4.93323,-4.04706 -7.67078,-5.21546 -2.458154,-1.02728 -4.236154,-1.55222 -6.903144,-1.41111 z m -79.081303,9.38105 c -8.263448,3.07057 -12.445971,15.31334 -12.550393,23.50905 -0.03669,2.72062 -0.245533,5.61621 0.852309,8.16185 1.969907,4.56917 6.886206,7.83165 11.071552,10.22207 2.720615,1.55222 9.448777,5.1449 12.553213,4.27283 2.14206,-0.61242 3.39795,-2.8081 4.70746,-4.44781 4.23614,-5.30294 4.79212,-4.23897 4.70463,-11.30015 -0.0847,-7.50145 -4.70463,-21.66333 -10.109176,-26.89289 -3.313281,-3.19193 -6.730984,-4.30953 -11.229595,-3.52495 z m 30.12715,8.14491 c -7.828829,2.51178 -7.219229,8.09412 -6.01414,14.73761 0.95673,5.31988 1.93322,8.21547 4.00754,13.18539 0.90876,2.17875 1.96991,4.32364 3.3132902,6.27661 2.04046,2.93228 4.48167,4.69335 8.10822,4.97274 7.1289204,0.52211 16.3519208,-4.23896 18.8806208,-11.24935 1.06398,-3.45439 0.64347,-10.7611 0,-14.44127 -0.31609,-3.07057 -0.68015,-7.53532 -2.82504,-9.90598 -1.79492,-1.98684 -4.72438,-2.63313 -7.2700204,-3.12137 -4.7949504,-0.889 -13.4252804,-1.23895 -18.2004706,-0.45438 z m -65.814066,4.5353 c -3.973679,2.59926 -2.70086,10.41116 -2.144884,14.5965 0.872065,6.71405 3.070571,14.47515 5.737564,20.72071 1.131709,2.61337 2.492017,5.85892 5.125144,7.1656 3.016947,1.51836 6.468517,0.31609 9.397977,-0.83537 3.276592,-1.29258 9.970888,-3.9765 10.964308,-7.60587 1.272819,-4.60304 -4.707456,-7.67361 -8.576714,-13.79499 -1.777996,-2.82504 -3.016948,-6.10163 -3.468503,-9.41774 -0.279399,-2.23237 0.08467,-5.50896 -0.996242,-7.3942 -2.091262,-3.62655 -12.358481,-4.37726 -16.03865,-3.43464 z m 140.501183,9.27663 c -7.02732,2.07715 -16.89378,12.85519 -16.89378,20.38768 0,3.27942 1.95297,6.17501 3.73097,8.7912 4.18252,6.15525 7.00756,10.42809 15.04523,8.78838 4.65383,-0.9398 10.52969,-2.92946 13.40552,-6.90596 2.75449,-3.83539 5.68395,-13.48172 4.44499,-18.20611 -1.75824,-6.73381 -12.90034,-13.6567 -19.73293,-12.85519 z M 26.98527,197.09116 c -5.35374,1.58608 -10.32084,5.71781 -11.07155,11.59648 -1.01035,8.02356 11.41868,16.51561 17.97469,14.70092 4.185352,-1.14864 5.283192,-5.31705 6.189122,-9.05084 0.54186,-2.24931 0.81844,-3.95957 0.69709,-6.27661 -0.36689,-6.78461 -7.216412,-11.89564 -13.789352,-10.96995 z m -47.07173,7.7244 c -3.34715,1.60584 -4.5861,4.03012 -7.53249,5.19852 -3.57293,1.41111 -11.765821,0.80151 -16.806298,6.25968 -2.542817,2.75448 -5.421476,11.38764 -3.259659,14.77147 1.097841,1.71026 5.003788,3.08751 6.886206,3.9257 4.936055,2.17875 16.318051,7.06119 21.338771,7.51556 6.155249,0.54187 5.963339,-4.11479 6.643499,-8.68395 0.54186,-3.62937 2.42428,-15.27948 2.02352,-18.20894 -0.2794,-1.95297 -1.20508,-4.01037 -2.28599,-5.65007 -1.778,-2.66982 -3.60679,-5.33681 -7.007559,-5.12797 z m 18.2004692,7.48169 c -5.99721,3.24555 -7.18254,12.76771 -8.07154,18.99352 -0.2794002,1.86548 -0.9595502,5.14489 -0.3471302,6.85233 0.6265302,1.74413 3.8353902,4.34339 5.2803602,5.61621 2.54564,2.19851 7.07812,6.17501 10.6708004,5.05741 4.28695,-1.34337 11.8899904,-9.92291 14.3650804,-13.7583 1.08091,-1.67639 2.44121,-4.22203 2.21544,-6.27943 -0.26247,-2.61619 -2.87866,-5.12796 -4.65666,-6.90596 -4.47886,-4.41394 -12.7423004,-10.89939 -19.4563508,-9.57578 z m 87.2403268,2.45815 c -3.93981,1.397 -6.57294,3.43746 -10.04144,5.59928 -6.12139,3.80152 -13.79217,6.36692 -14.38483,14.70374 -0.13829,2.17875 0.34995,4.72439 0.66322,6.90596 1.32362,9.31332 3.92288,14.94646 14.34814,15.06781 2.57951,0.0339 5.05459,0.13829 7.5325,-0.69708 10.964303,-3.68017 11.452553,-16.69059 10.128933,-26.30023 -0.508003,-3.59268 -2.074333,-13.08097 -5.317063,-14.94645 -1.18815,-0.68016 -1.71026,-0.43745 -2.92946,-0.33303 z m -42.05101,7.56919 c -6.014144,2.51177 -17.382026,8.44124 -20.712246,13.9869 -0.81844,1.3603 -1.2192,2.84479 -1.49859,4.39701 -1.83162,10.39422 11.59366,14.73479 19.699062,15.05087 2.966154,0.10443 7.603054,-0.38382 10.024514,-2.18157 5.56259,-4.15148 5.98027,-14.37072 3.87208,-20.40462 -1.79775,-5.10821 -4.89937,-11.96337 -11.38482,-10.84859 z m -89.105816,20.66708 c -5.508964,2.52871 -3.606791,6.66325 -1.253063,10.8994 0,0 13.021702,19.3604 13.021702,19.3604 2.703683,3.1383 5.195701,5.23238 9.553201,4.01036 6.24274,-1.74413 14.6811592,-8.26627 15.0452292,-15.20892 0.10442,-2.14488 -0.15522,-4.18534 -0.6096002,-6.2766 -0.55598,-2.47791 -1.34055,-4.90219 -3.27659,-6.66325 -2.94639,-2.72062 -7.391379,-3.01695 -11.159039,-3.66042 -6.869274,-1.15146 -14.348145,-3.9257 -21.32184,-2.46097 z m 52.0755196,7.43089 c -7.6340904,1.81187 -8.8730404,6.12139 -3.5729204,11.94644 3.5729204,3.92288 7.0244904,4.27284 11.7319508,5.68394 2.21544,0.68016 3.87208,1.63971 6.2766,1.1684 5.26626,-1.01035 9.62376,-9.46853 5.40455,-13.65388 -3.52213,-3.47132 -14.94081,-5.82505 -19.8401804,-5.1449 z m 33.2654624,6.93983 c -8.734762,2.79117 -13.495842,15.60968 -13.162822,24.15535 0.0875,1.98683 0.41769,3.90594 1.41111,5.65007 3.40077,6.01696 13.476082,11.24935 20.537266,9.80156 10.37447,-2.11102 20.90415,-19.14874 16.28419,-28.63703 -3.03388,-6.2258 -18.39238,-11.9295 -25.069744,-10.96995 z m 45.186494,8.75451 c -4.0781,0.90876 -8.01792,2.35655 -11.92386,3.83822 -1.32362,0.48824 -3.58986,1.11477 -4.32364,2.40735 -0.71402,1.27282 0.66323,7.34058 0.92287,9.15527 0.94262,6.95958 -1.09784,16.30676 9.67738,15.48549 8.69806,-0.64346 14.314273,-2.37066 14.435633,-12.34719 0.0508,-4.60303 -0.400763,-8.04049 -1.202273,-12.55604 -0.36688,-2.00659 -0.80433,-4.49861 -2.70368,-5.63314 -1.46473,-0.889 -3.29352,-0.57573 -4.88243,-0.34996 z m -82.8433268,4.36033 c -6.33023,0.95955 -15.6209602,3.45439 -17.8025302,10.41115 -2.788349,8.94925 9.9031502,16.5523 16.54665017,19.65673 2.84197043,1.32362 5.54283043,2.667 8.78556043,2.17875 5.4750904,-0.80151 6.2060504,-8.66702 7.5494204,-13.04428 1.18533,-3.90594 2.92946,-10.58613 1.04704,-14.44127 -2.84197,-5.7545 -10.6877304,-5.4243 -16.1261408,-4.76108 z M 26.46316,294.5987 c -2.73755,1.61996 -3.59268,4.08093 -4.60303,7.01039 -0.73378,2.12795 -1.71026,4.63972 -1.53529,6.90596 0.57573,7.7244 7.87963,14.3171 15.445992,14.94645 2.28599,0.19191 5.56259,-0.47131 7.532494,-1.67357 3.67735,-2.23237 8.82225,-9.33307 7.14867,-13.90224 -0.75071,-2.07432 -2.8589,-3.76483 -4.63972,-4.95298 -3.920064,-2.63313 -14.833566,-8.90974 -19.349116,-8.33401 z m 44.455546,10.42809 c -6.74792,1.30669 -15.62096,7.34341 -16.24749,14.78841 -0.80434,9.41773 12.95114,12.66328 20.01233,14.35379 1.62277,0.40075 6.01414,1.32644 7.53249,1.1176 2.77142,-0.40358 4.27001,-3.14113 5.42148,-5.4243 2.28317,-4.56917 5.21263,-14.65012 2.54563,-19.4112 -2.65006,-4.69052 -14.38201,-6.0339 -19.26444,-5.4243 z"
       id="red copy"
       inkscape:connector-curvature="0"
       style="fill:#63022d;fill-opacity:1;stroke:#000000;stroke-width:0.28222156" />
    <path
       d="M 40.503664,97.569945 M 108.29606,76.812551 c 1.10348,0.0649 2.53152,0.14676 2.53152,0.14676 11.45538,0.49953 25.22214,2.81939 35.55145,7.953 5.72628,2.84762 13.10355,7.67925 13.39142,14.794032 0.30197,7.459117 -7.19665,12.567327 -13.10355,15.522187 -11.3566,5.68112 -25.25036,7.7498 -38.37084,8.2578 0.0282,2.91253 -0.006,4.85139 -0.006,6.2625 18.28796,-0.55033 37.22503,-5.12514 51.68606,-16.34063 0,0 -0.2032,8.91538 0.0847,16.03301 0.30198,7.45911 -7.19382,12.56732 -13.10072,15.51936 -11.44408,5.72345 -25.46767,7.78367 -38.67564,8.27191 -0.031,3.00849 -0.0677,4.77519 -0.0847,6.20888 18.33876,-0.52776 37.273,-5.14772 51.77637,-16.3999 0,0 -0.2032,9.30767 0.0847,16.42248 0.30198,7.45911 -7.19382,12.57014 -13.10072,15.52218 -11.43562,5.71781 -25.64265,7.92478 -38.84215,8.41585 0.008,2.78835 -0.0113,4.82317 0.0169,6.10727 18.25691,-0.56444 37.21373,-5.15054 51.64654,-16.34345 0,0 -0.008,6.00003 0.2794,13.11484 0.30198,7.45911 -7.19382,12.56732 -13.10072,15.52218 -11.49206,5.74886 -25.58338,7.80061 -38.83933,8.27756 -0.079,2.66417 0.0141,4.26437 -0.17216,6.14679 26.89854,-0.87771 52.15172,-9.72536 58.05016,-26.73767 0,0 -0.38947,-91.919545 0,-92.114285 -6.81283,-18.620964 -31.86564,-26.771524 -57.82438,-27.319034 0.0423,4.02448 0.079,6.14114 0.12136,6.75638 z"
       id="db half"
       inkscape:connector-curvature="0"
       style="fill:#63022d;fill-opacity:1;stroke:#000000;stroke-width:0.28222156" />
    <path
       d="m 260.24379,83.341722 c 0,2.015067 -1.63124,3.649127 -3.6463,3.649127 -2.01506,0 -3.64912,-1.70462 -3.64912,-3.719677 0,-2.01506 1.63406,-3.57857 3.64912,-3.57857 2.52306,-0.24271 3.71686,2.37066 3.6463,3.64912 z M 121.79436,287.01818 c 0,2.01507 -1.56351,3.64913 -3.57857,3.64913 -2.01506,0 -3.64631,-1.63406 -3.64631,-3.64913 0,-2.01506 1.56069,-3.64912 3.57575,-3.64912 2.52588,-0.24271 3.71968,2.36784 3.64913,3.64912 z m 43.47906,27.06505 c 0,2.01224 -1.63124,3.6463 -3.6463,3.6463 -2.01507,0 -3.64913,-1.63406 -3.64913,-3.6463 0,-2.01506 1.63406,-3.64912 3.64913,-3.64912 2.52306,-0.24271 3.71685,2.36784 3.6463,3.64912 z m 24.35007,-49.50448 c 0,2.01506 -1.63124,3.6463 -3.6463,3.6463 -2.01506,0 -3.64912,-1.63124 -3.64912,-3.6463 0,-2.01506 1.5635,-3.64913 3.57857,-3.64913 2.52306,-0.24271 3.78741,2.36784 3.71685,3.64913 z m 54.59012,-4.09504 c 0,2.01507 -1.63406,3.64631 -3.64912,3.64631 -2.01507,0 -3.43746,-1.50707 -3.43746,-3.52213 0,-2.01506 1.42239,-3.7733 3.43746,-3.7733 2.52588,-0.24271 3.71968,2.36784 3.64912,3.64912 z m 16.29547,-57.67479 c 0,2.01224 -1.63406,3.6463 -3.64912,3.6463 -2.01506,0 -3.64913,-1.63406 -3.64913,-3.6463 0,-2.01507 1.63407,-3.64913 3.64913,-3.64913 2.52306,-0.24271 3.71686,2.36784 3.64912,3.64913 z m 17.40743,-59.7322 c 0,2.01507 -1.63406,3.64631 -3.64913,3.64631 -2.01506,0 -3.6463,-1.63124 -3.6463,-3.64631 0,-2.01506 1.63124,-3.64912 3.6463,-3.64912 2.52589,-0.24271 3.71968,2.36784 3.64913,3.64912 z M 218.19843,56.395227 c 0,2.015057 -1.63407,3.649117 -3.64913,3.649117 -2.01506,0 -3.64912,-1.63406 -3.64912,-3.649117 0,-2.01224 1.63406,-3.6463 3.64912,-3.6463 2.52589,-0.24271 3.71686,2.36784 3.64913,3.6463 z M 212.27742,6.2360103 c 0,2.01224 -1.63406,3.646302 -3.64913,3.646302 -2.01224,0 -3.6463,-1.634062 -3.6463,-3.646302 0,-2.0150617 1.63406,-3.6491247 3.6463,-3.6491247 2.52589,-0.24271 3.71968,2.3678387 3.64913,3.6491247 z M 159.80397,-22.398187 c 0,2.015062 -1.63407,3.649125 -3.64913,3.649125 -2.01506,0 -3.6463,-1.634063 -3.6463,-3.649125 0,-2.015062 1.63124,-3.646304 3.6463,-3.646304 2.52588,-0.24271 3.71968,2.36784 3.64913,3.646304 z m -37.32946,98.596892 c 0,0 32.78569,-95.436011 32.78569,-95.436011 m 8.98311,136.547206 c 0,0 90.87534,-33.302128 90.87534,-33.302128 m -111.38438,-1.6002 c 0,0 62.84227,-74.4584767 62.84227,-74.4584767 M 238.60869,257.85623 c 0,0 -76.62315,-64.25338 -76.62315,-64.25338 m 22.15439,68.4867 c 0,0 -37.25325,-54.75098 -37.25325,-54.75098 m 124.03638,-64.2054 c 0,0 -107.3853,2.53999 -107.3853,2.53999 m 48.82433,-87.629766 c 0,0 -50.51766,36.829889 -50.51766,36.829889 m -0.98778,215.758377 c 0,0 -30.05659,-97.93088 -30.05659,-97.93088 m -12.69998,71.9665 c 0,0 -2.82222,-69.14428 -2.82222,-69.14428 m 138.7119,-13.96997 c 0,0 -91.29867,-29.20993 -91.29867,-29.20993"
       id="corrected copy"
       inkscape:connector-curvature="0"
       style="fill:#63022d;fill-opacity:1;stroke:#63022d;stroke-width:3.382;stroke-miterlimit:4;stroke-dasharray:none;stroke-opacity:1" />
    <path
       d="m 98.35911,342.40139 c -0.66322,0 -1.65664,-0.0536 -2.33679,-0.0536 C 71.51138,342.05143 42.99007,334.37783 21.05863,323.58285 -65.58903,280.95893 -109.13863,181.32343 -77.11214,89.465965 -57.23809,32.474151 -12.27456,-12.523259 45.46515,-30.816859 c 15.98786,-4.91912 35.25229,-7.15149 40.25326,-7.65667 0,0 7.09787,-0.78458 12.76206,-0.78458 -0.15522,8.23241 -0.12136,376.096909 -0.12136,381.659499 z M 108.5586,-39.379459 c 26.93523,1.11477 48.25706,6.18912 69.24588,15.17223 28.66242,12.2597 54.49981,30.1892398 74.32023,54.37845 56.79991,69.305144 56.79991,173.109049 0,242.417019 -17.88721,21.81855 -40.25327,38.61355 -65.44436,50.99461 -26.11678,12.85237 -50.4725,17.84205 -78.17537,18.66049 -0.12136,-6.556 0.0536,-381.622799 0.0536,-381.622799 z m -0.12135,-9.13833 c 21.37263,0.10442 48.20344,6.06776 69.52527,14.50901 22.34913,8.85893 43.39157,21.76492 61.01913,38.1760998 80.00416,74.4359442 87.08228,200.7526592 13.65105,282.3739492 -17.67835,19.65391 -37.08391,34.11212 -60.72279,45.76223 -32.3059,15.93987 -61.97867,20.92673 -97.6289,20.50904 C 77.26305,352.6037 54.65147,347.789 38.49146,342.34776 -73.76499,304.45105 -127.18105,179.92926 -81.05195,72.027495 -57.50056,16.898341 -10.32441,-24.173359 47.20928,-40.584549 c 14.22397,-4.06399 25.22497,-6.46851 36.81862,-7.445 10.21642,-0.45438 14.00101,-0.47131 24.40935,-0.48824 z m 0.45155,9.03391"
       id="beige"
       inkscape:connector-curvature="0"
       style="fill:#f9f9f9;fill-rule:evenodd;stroke:#000000;stroke-width:0.28200001;stroke-miterlimit:4;stroke-dasharray:none;stroke-opacity:0.94117647" />
  </g>
</svg>
