<?xml version="1.0" encoding="UTF-8" standalone="no"?>
<!-- Created with Inkscape (http://www.inkscape.org/) -->

<svg
   xmlns:dc="http://purl.org/dc/elements/1.1/"
   xmlns:cc="http://creativecommons.org/ns#"
   xmlns:rdf="http://www.w3.org/1999/02/22-rdf-syntax-ns#"
   xmlns:svg="http://www.w3.org/2000/svg"
   xmlns="http://www.w3.org/2000/svg"
   xmlns:sodipodi="http://sodipodi.sourceforge.net/DTD/sodipodi-0.dtd"
   xmlns:inkscape="http://www.inkscape.org/namespaces/inkscape"
   width="356.85934mm"
   height="86.228966mm"
   viewBox="0 0 356.85935 86.228966"
   version="1.1"
   id="svg8"
   inkscape:version="0.92.3 (2405546, 2018-03-11)"
   sodipodi:docname="dadess_logo_side.svg">
  <defs
     id="defs2">
    <filter
       style="color-interpolation-filters:sRGB"
       inkscape:label="Drop Shadow"
       id="filter4878">
      <feFlood
         flood-opacity="0.498039"
         flood-color="rgb(0,0,0)"
         result="flood"
         id="feFlood4868" />
      <feComposite
         in="flood"
         in2="SourceGraphic"
         operator="in"
         result="composite1"
         id="feComposite4870" />
      <feGaussianBlur
         in="composite1"
         stdDeviation="3"
         result="blur"
         id="feGaussianBlur4872" />
      <feOffset
         dx="6"
         dy="6"
         result="offset"
         id="feOffset4874" />
      <feComposite
         in="SourceGraphic"
         in2="offset"
         operator="over"
         result="fbSourceGraphic"
         id="feComposite4876" />
      <feColorMatrix
         result="fbSourceGraphicAlpha"
         in="fbSourceGraphic"
         values="0 0 0 -1 0 0 0 0 -1 0 0 0 0 -1 0 0 0 0 1 0"
         id="feColorMatrix4880" />
      <feFlood
         id="feFlood4882"
         flood-opacity="0.498039"
         flood-color="rgb(0,0,0)"
         result="flood"
         in="fbSourceGraphic" />
      <feComposite
         in2="fbSourceGraphic"
         id="feComposite4884"
         in="flood"
         operator="out"
         result="composite1" />
      <feGaussianBlur
         id="feGaussianBlur4886"
         in="composite1"
         stdDeviation="3"
         result="blur" />
      <feOffset
         id="feOffset4888"
         dx="6"
         dy="6"
         result="offset" />
      <feComposite
         in2="fbSourceGraphic"
         id="feComposite4890"
         in="offset"
         operator="atop"
         result="fbSourceGraphic" />
      <feColorMatrix
         result="fbSourceGraphicAlpha"
         in="fbSourceGraphic"
         values="0 0 0 -1 0 0 0 0 -1 0 0 0 0 -1 0 0 0 0 1 0"
         id="feColorMatrix4892" />
      <feFlood
         id="feFlood4894"
         flood-opacity="0.498039"
         flood-color="rgb(0,0,0)"
         result="flood"
         in="fbSourceGraphic" />
      <feComposite
         in2="fbSourceGraphic"
         id="feComposite4896"
         in="flood"
         operator="out"
         result="composite1" />
      <feGaussianBlur
         id="feGaussianBlur4898"
         in="composite1"
         stdDeviation="3"
         result="blur" />
      <feOffset
         id="feOffset4900"
         dx="6"
         dy="6"
         result="offset" />
      <feComposite
         in2="fbSourceGraphic"
         id="feComposite4902"
         in="offset"
         operator="atop"
         result="fbSourceGraphic" />
      <feColorMatrix
         result="fbSourceGraphicAlpha"
         in="fbSourceGraphic"
         values="0 0 0 -1 0 0 0 0 -1 0 0 0 0 -1 0 0 0 0 1 0"
         id="feColorMatrix4904" />
      <feFlood
         id="feFlood4906"
         flood-opacity="0.498039"
         flood-color="rgb(0,0,0)"
         result="flood"
         in="fbSourceGraphic" />
      <feComposite
         in2="fbSourceGraphic"
         id="feComposite4908"
         in="flood"
         operator="out"
         result="composite1" />
      <feGaussianBlur
         id="feGaussianBlur4910"
         in="composite1"
         stdDeviation="3"
         result="blur" />
      <feOffset
         id="feOffset4912"
         dx="6"
         dy="6"
         result="offset" />
      <feComposite
         in2="fbSourceGraphic"
         id="feComposite4914"
         in="offset"
         operator="atop"
         result="composite2" />
    </filter>
    <filter
       y="-0.25"
       height="1.5"
       inkscape:menu-tooltip="Darkens the edge with an inner blur and adds a flexible glow"
       inkscape:menu="Shadows and Glows"
       inkscape:label="Dark and Glow"
       style="color-interpolation-filters:sRGB"
       id="filter5095">
      <feGaussianBlur
         stdDeviation="5"
         result="result6"
         id="feGaussianBlur5085" />
      <feComposite
         result="result8"
         in="SourceGraphic"
         operator="atop"
         in2="result6"
         id="feComposite5087" />
      <feComposite
         result="result9"
         operator="over"
         in2="SourceAlpha"
         in="result8"
         id="feComposite5089" />
      <feColorMatrix
         values="1 0 0 0 0 0 1 0 0 0 0 0 1 0 0 0 0 0 1 0 "
         result="result10"
         id="feColorMatrix5091" />
      <feBlend
         in="result10"
         mode="normal"
         in2="result6"
         id="feBlend5093" />
    </filter>
  </defs>
  <sodipodi:namedview
     id="base"
     pagecolor="#ffffff"
     bordercolor="#666666"
     borderopacity="1.0"
     inkscape:pageopacity="0.0"
     inkscape:pageshadow="2"
     inkscape:zoom="0.98994949"
     inkscape:cx="245.92794"
     inkscape:cy="69.538232"
     inkscape:document-units="mm"
     inkscape:current-layer="layer1"
     showgrid="false"
     inkscape:window-width="1630"
     inkscape:window-height="924"
     inkscape:window-x="68"
     inkscape:window-y="38"
     inkscape:window-maximized="0" />
  <metadata
     id="metadata5">
    <rdf:RDF>
      <cc:Work
         rdf:about="">
        <dc:format>image/svg+xml</dc:format>
        <dc:type
           rdf:resource="http://purl.org/dc/dcmitype/StillImage" />
        <dc:title />
      </cc:Work>
    </rdf:RDF>
  </metadata>
  <g
     inkscape:label="Layer 1"
     inkscape:groupmode="layer"
     id="layer1"
     transform="translate(106.21201,100.65617)"
     style="display:inline">
    <ellipse
       style="fill:#ffffff;fill-opacity:1;stroke:none;stroke-width:0.32380164;stroke-miterlimit:4;stroke-dasharray:none;stroke-opacity:1"
       id="path5097"
       cx="-66.823418"
       cy="-53.389637"
       rx="37.891998"
       ry="37.610233" />
    <path
       d="m -66.209301,-90.939509 c 3.983073,0.01946 8.983347,1.130807 12.95695,2.703945 4.165054,1.650978 8.08659,4.05618 11.371717,7.114619 14.909827,13.872116 16.228928,37.412896 2.544053,52.624099 -3.294595,3.662764 -6.911074,6.357242 -11.31649,8.528391 -6.02063,2.970606 -11.55054,3.899971 -18.19443,3.822129 -3.171521,-0.03892 -7.385488,-0.936202 -10.397119,-1.950247 -20.92046,-7.06255 -30.87525,-30.268825 -22.27848,-50.377736 4.389106,-10.274044 13.181002,-17.928296 23.903163,-20.986736 2.650822,-0.757378 4.701003,-1.205492 6.861634,-1.387474 1.903965,-0.08468 2.609273,-0.08783 4.549002,-0.09099 z m 0.08415,1.683588 m -0.760007,-11.317539 c 0,0 -0.87414,2.80808 -0.87414,2.80808 0,0 -0.880453,2.574561 -0.880453,2.574561 -0.325041,-1.254934 -1.903964,-4.196086 -3.859999,-5.031301 0.04891,1.072422 0.461264,1.767737 0.468102,3.276181 0.0063,1.260719 -0.10414,1.972865 -0.562248,3.158898 -0.136223,0.35134 -0.438649,1.111873 -0.682166,1.368541 -0.328199,0.347657 -1.426396,0.464945 -1.913959,0.552254 0,0 -3.976761,1.053492 -3.976761,1.053492 -3.108931,0.909905 -7.686862,3.178358 -10.292979,5.08653 0,0 -2.803875,2.128548 -2.803875,2.128548 -6.101627,5.19067 -10.549644,12.006546 -12.602974,19.764412 -0.58802,2.21007 -1.29281,5.694536 -1.3191,7.956675 0,0 0,4.329152 0,4.329152 0.003,1.339087 0.42918,4.251311 0.70215,5.616169 0.95829,4.800935 2.75496,9.321535 5.38685,13.456083 2.462527,3.871044 5.523071,7.092003 9.116409,9.919549 7.011531,5.522022 15.94018,8.20335 24.796768,8.09921 0,0 1.169729,-0.107294 1.169729,-0.107294 2.787572,-0.188292 4.867205,-0.435492 7.602709,-1.117659 5.929637,-1.485302 11.537392,-4.514815 16.141093,-8.518924 0,0 2.108561,-2.07385 2.108561,-2.07385 3.639096,-3.714834 6.156853,-7.634265 8.184417,-12.40259 1.247569,-2.941152 2.352078,-7.11462 2.670809,-10.296661 0,0 0.146215,-2.223219 0.146215,-2.223219 0,0 0.107297,-1.169729 0.107297,-1.169729 0.03524,-3.022674 -0.159366,-6.039038 -0.754223,-9.009642 -1.705679,-8.535231 -6.611805,-16.887952 -13.398753,-22.348437 -4.288654,-3.45133 -7.28766,-5.024468 -12.398385,-6.925803 0,0 -4.093522,-1.12134 -4.093522,-1.12134 -0.5491,-0.120444 -1.540003,-0.185662 -1.894497,-0.637458 -0.171989,-0.224059 -0.493873,-1.075584 -0.597488,-1.378009 -0.247199,-0.708463 -0.474413,-1.70936 -0.529638,-2.456745 -0.06206,-0.910431 0.431811,-2.792305 0.565403,-3.744287 -1.309633,0.500185 -2.488827,2.200078 -3.13891,3.162053 -0.292432,0.471257 -0.695316,1.147638 -0.838376,1.635201 0,0 -0.912536,-3.042136 -0.912536,-3.042136 0,0 -0.84153,-2.340505 -0.84153,-2.340505 z m -3.391898,12.728155 c -1.400623,0.519646 -1.325938,2.749178 -1.413773,4.004111 0,0 -0.106769,1.169728 -0.106769,1.169728 -0.0037,0.448642 -0.06837,1.358548 0.217221,1.703575 0.321886,0.396046 1.322781,0.321359 1.770897,0.204597 0.919373,-0.2472 1.0172,-1.079263 1.049285,-1.908172 0,0 -0.376587,-3.626999 -0.376587,-3.626999 -0.136747,-0.721613 -0.256667,-1.54684 -1.140274,-1.54684 z m -4.562151,0.321359 c -0.893075,0.263505 -2.488302,1.280707 -3.274607,1.833487 -0.331355,0.234051 -0.832066,0.601169 -0.884136,1.03035 -0.04523,0.380267 0.321886,0.83522 0.490718,1.169728 0.234053,0.471258 0.36712,1.014045 0.493875,1.521068 0.253511,1.001422 0.357651,2.776 0.708465,3.510237 0.246672,0.513859 0.675853,0.96513 1.296484,0.832063 0.311891,-0.06837 0.782622,-0.360806 1.052439,-0.542786 1.559462,-1.049812 2.014416,-2.158002 2.417298,-3.916277 0.149371,-0.666387 0.262978,-1.056647 0.253511,-1.755118 0,0 0,-1.404305 0,-1.404305 -0.240362,-1.335931 -1.072427,-2.515653 -2.554047,-2.278447 z m -7.017845,3.851584 c -1.565774,0.289277 -3.482887,1.170255 -3.599649,2.990065 -0.04576,0.695841 0.461264,2.181144 0.626941,2.925374 0.357649,1.592596 0.497029,4.108249 2.739184,3.812662 1.974969,-0.263504 3.993066,-0.84837 4.090369,-3.227798 0.02262,-0.565404 -0.05523,-0.766846 -0.10414,-1.287017 -0.201442,-2.161158 -0.916218,-5.515711 -3.752705,-5.213286 z m 10.643793,3.640148 c -0.870459,0.244045 -1.868199,0.74423 -2.306322,1.573138 -0.426024,0.803136 -0.166202,1.504763 -0.06522,2.339981 0,0 0.08468,1.638358 0.08468,1.638358 0.155684,0.991428 0.529113,1.618368 1.049284,2.457271 0.380267,0.60748 1.322256,2.105931 2.056493,2.242679 0.883608,0.162522 0.935678,-1.219167 0.919373,-1.774578 0,0 0,-3.393475 0,-3.393475 0,0 -0.119919,-3.158897 -0.119919,-3.158897 -0.126755,-0.965657 -0.454952,-1.999162 -1.618369,-1.924477 z m -19.064889,1.862415 c -0.679011,0.149372 -1.426396,0.321884 -1.878193,0.894125 -0.483881,0.610636 -0.626941,1.676752 -0.695315,2.444123 -0.05838,0.653238 -0.129912,0.812078 -0.116763,1.521068 0.04208,1.74828 0.604325,3.763747 2.690271,3.857894 1.556305,0.06469 1.789831,-0.786832 2.368383,-1.986014 0.5491,-1.134489 1.046129,-2.301061 1.406935,-3.510237 0.198285,-0.659549 0.535951,-1.829803 0.113607,-2.444121 -0.64009,-0.93936 -2.872251,-0.9199 -3.888925,-0.776838 z m 13.334062,2.483043 c -0.779995,0.227739 -2.404676,1.723033 -3.275136,2.294749 -0.438648,0.289276 -1.007207,0.575398 -1.130806,1.134489 -0.100459,0.444961 0.175669,1.014045 0.373428,1.403779 0.412877,0.81576 1.468999,2.190611 2.160632,2.782312 0.354494,0.305581 0.916218,0.627468 1.403779,0.552781 0.708465,-0.10414 1.218644,-0.894126 1.553152,-1.462686 0.308737,-0.526483 1.023512,-1.664128 1.095042,-2.223219 0.06785,-0.545944 -0.471258,-1.89818 -0.682693,-2.457271 -0.282439,-0.74423 -0.56172,-1.953404 -1.497398,-2.024934 z m -8.187573,2.333671 c -0.945672,0.263504 -1.50792,0.985117 -1.988644,1.79772 -0.968287,1.634673 -1.796669,4.46222 -1.159736,6.31832 0.301901,0.880452 1.328568,2.999533 2.446227,2.866466 0.510178,-0.05838 1.263874,-0.663231 1.627837,-1.014044 1.0172,-0.984592 3.002162,-3.526543 2.908015,-5.011844 -0.06837,-1.091887 -0.786306,-1.836117 -1.374324,-2.691322 -0.581709,-0.841532 -1.302796,-2.262141 -2.459375,-2.265296 z m 11.579468,2.460426 c -1.439543,0.594858 -1.62468,2.43781 -2.32315,3.666447 -0.490719,0.857835 -0.984592,1.140799 -0.7963,2.223219 0.208279,1.196026 1.575767,3.194662 2.768638,3.552312 0.454427,0.136224 0.958293,0.03892 1.403253,-0.09414 0.611162,-0.181982 1.381162,-0.562249 1.796668,-1.053492 1.221799,-1.430076 0.864147,-4.348612 0.117289,-5.914913 -0.497028,-1.040342 -1.666757,-2.58087 -2.966398,-2.379428 z m -20.702718,1.040342 c -0.860992,0.341346 -1.20865,0.975125 -1.514231,1.80719 -0.695315,1.901332 -0.448641,5.431029 2.215857,5.498878 0.747385,0.01631 1.05244,-0.05838 1.754592,-0.315048 1.841902,-0.679536 2.31316,-1.83664 2.098569,-3.662764 -0.05838,-0.503867 -0.204597,-1.209175 -0.477569,-1.638356 -0.597488,-0.936203 -2.982702,-1.881875 -4.077218,-1.6899 z m 13.337217,3.665921 c -0.702153,0.396572 -2.141171,2.528801 -2.709731,3.289334 -0.220902,0.295588 -0.727924,0.90675 -0.721613,1.283861 0.01316,0.461264 0.617473,0.669543 0.971442,0.82207 1.000897,0.432337 1.6899,1.092413 2.807559,0.588546 1.247571,-0.559091 2.186404,-2.415193 2.222169,-3.747442 0.0063,-0.393416 0.02262,-0.929892 -0.152528,-1.287018 -0.390259,-0.773681 -1.61837,-1.111872 -2.417298,-0.949351 z m -17.431267,0.451797 c -1.241258,0.536476 -1.721981,1.696738 -1.923421,2.954299 -0.0258,0.315574 -0.091,0.614318 0,0.936204 0.18198,0.897283 1.893968,1.670439 2.742336,1.426922 0.707938,-0.204597 1.968657,-1.468999 1.956034,-2.245837 -0.01,-0.523328 -0.503866,-1.325938 -0.796298,-1.755119 -0.461265,-0.672698 -1.095043,-1.443226 -1.978651,-1.316469 z m 21.057215,2.710782 c -0.838375,0.416031 -1.277025,1.966552 -1.618371,2.818077 -0.591176,1.485301 -1.075057,2.219539 -0.825225,3.861049 0.139904,0.933048 0.412876,1.400624 1.270711,1.839798 0.4255,0.217747 0.704783,0.311894 1.169204,0.406039 0.539631,0.110451 1.085575,0.204597 1.637828,0.211434 0.597488,0.0063 1.58208,0.06837 2.056493,-0.335034 0.302425,-0.259822 0.373429,-0.695315 0.444959,-1.06927 0.133593,-0.69216 0.500711,-2.301063 0.328197,-2.924846 -0.269289,-0.994585 -1.432706,-2.402046 -2.137488,-3.159424 -0.575397,-0.617474 -1.416929,-1.686745 -2.326308,-1.647823 z m 7.248212,0.464946 c -0.477568,0.214064 -0.6464,0.419187 -1.052439,0.727923 -0.633778,0.477569 -1.530535,0.981437 -1.611532,1.859258 -0.117288,1.241259 1.075581,3.357185 2.547209,2.791779 1.107666,-0.426024 0.925685,-1.608901 0.935677,-2.557728 0,0 0.0973,-1.521593 0.0973,-1.521593 -0.05838,-0.591176 -0.227212,-1.293329 -0.916217,-1.299639 z m -20.936769,0.185137 c 0,0 -2.69027,0.942515 -2.69027,0.942515 -0.740548,0.188292 -1.796669,0.295587 -2.238473,0.994584 -0.477569,0.754221 0.07153,2.574033 0.328197,3.389791 0.250355,0.799455 0.490718,2.161684 0.847843,2.808085 0.818915,1.488986 2.719723,2.154846 4.337566,2.220066 0.689003,0.02577 1.809819,-0.09099 2.222696,-0.71162 0.448114,-0.669544 0.126755,-1.79404 0.116762,-2.561411 -0.0063,-0.630623 0.0031,-0.893602 0.08468,-1.521068 0,0 0.139379,-1.170254 0.139379,-1.170254 0.0263,-0.464421 -0.09099,-1.056122 -0.178825,-1.521068 -0.321361,-1.703048 -0.961449,-3.149429 -2.969553,-2.86962 z m -8.53523,2.265296 c -0.928839,0.481251 -1.127119,2.112769 -1.364329,3.061594 -0.52333,2.102777 -1.32909,4.137704 0.54279,5.830761 0.373423,0.338189 0.724237,0.575396 1.169196,0.809448 0.520172,0.269815 0.923055,0.468101 1.520542,0.493873 1.517386,0.06522 2.508289,-1.263875 2.570352,-2.687641 0.07784,-1.794038 -1.218642,-4.293386 -2.235318,-5.733457 -0.510178,-0.721613 -1.199182,-1.881873 -2.203233,-1.774578 z m 15.436311,0.88729 c -0.649557,0.107295 -1.280179,0.17567 -1.871354,0.493874 -1.224954,0.663231 -1.942886,2.304741 -1.832435,3.6696 0.06469,0.838377 0.480724,2.554573 0.886763,3.276186 0.286121,0.510178 0.662705,0.916744 1.296484,0.845212 0.64009,-0.07153 1.22811,-0.461789 1.754592,-0.796298 1.624682,-1.033504 2.852791,-2.233213 2.807033,-4.261303 -0.04891,-2.040714 -0.760007,-3.506555 -3.041083,-3.227271 z m 13.100011,2.954299 c -1.435863,0.598014 -2.043343,2.372592 -2.677121,3.666446 -0.282439,0.571715 -0.750541,0.948827 -0.692159,1.63783 0.113607,1.283861 1.287017,2.317368 2.433603,2.727087 0.389734,0.139905 0.99774,0.286122 1.400623,0.126757 0.643246,-0.250357 0.695316,-1.313316 0.834695,-1.91764 0.353969,-1.540528 0.571713,-3.107354 0.338189,-4.679966 -0.14306,-0.952508 -0.536476,-1.761955 -1.63783,-1.560514 z m -8.304335,2.450959 c -1.293329,0.337666 -2.885399,1.602065 -2.664498,3.087368 0,0 0.857835,2.223221 0.857835,2.223221 0.321887,1.06927 0.880453,3.156267 2.391526,2.990065 0.948828,-0.100457 1.669916,-1.497926 2.004424,-2.287913 0.542787,-1.290172 1.078737,-3.581768 0.126755,-4.777792 -0.350813,-0.435494 -0.919372,-0.754223 -1.42955,-0.97197 -0.45811,-0.191447 -0.789463,-0.289277 -1.286492,-0.262979 z m -14.737841,1.748282 c -1.540002,0.572241 -2.31947,2.853842 -2.33893,4.381221 -0.0068,0.507023 -0.04576,1.046654 0.158839,1.521068 0.367118,0.851525 1.283335,1.459531 2.063329,1.905017 0.507022,0.289276 1.760904,0.95882 2.339456,0.796298 0.399201,-0.114133 0.633253,-0.523326 0.877297,-0.828908 0.789461,-0.988273 0.893075,-0.789988 0.87677,-2.105932 -0.01579,-1.397993 -0.87677,-4.037246 -1.883978,-5.011843 -0.617473,-0.594858 -1.254407,-0.803138 -2.092783,-0.656921 z m 5.614591,1.517911 c -1.459005,0.468103 -1.345398,1.508446 -1.120814,2.746548 0.178299,0.991429 0.360281,1.53106 0.746858,2.45727 0.169359,0.406039 0.367118,0.805767 0.617475,1.169729 0.380266,0.546469 0.835218,0.874668 1.511073,0.926736 1.328568,0.0973 3.047396,-0.789986 3.518652,-2.096465 0.198287,-0.643771 0.119919,-2.005472 0,-2.69132 -0.05891,-0.572241 -0.126755,-1.404306 -0.526483,-1.84611 -0.334507,-0.370274 -0.88045,-0.490718 -1.354864,-0.581708 -0.893602,-0.165677 -2.501978,-0.230895 -3.391897,-0.08468 z m -12.265316,0.845213 c -0.74054,0.484406 -0.50334,1.940256 -0.39972,2.72025 0.16252,1.251251 0.57224,2.697634 1.06927,3.861576 0.210902,0.487036 0.464413,1.091887 0.955131,1.335404 0.562247,0.282966 1.205493,0.05891 1.751436,-0.155682 0.610636,-0.240889 1.858206,-0.741073 2.043343,-1.417454 0.237207,-0.857837 -0.877296,-1.430078 -1.598383,-2.570878 -0.331353,-0.526483 -0.562248,-1.137119 -0.646401,-1.755119 -0.05207,-0.416032 0.01578,-1.026667 -0.185663,-1.378007 -0.389734,-0.675855 -2.303166,-0.81576 -2.989013,-0.64009 z m 26.184242,1.728822 c -1.309633,0.387104 -3.148378,2.395734 -3.148378,3.799512 0,0.611163 0.363962,1.150794 0.695315,1.638356 0.779468,1.147112 1.305951,1.943411 2.803877,1.63783 0.867302,-0.175144 1.962346,-0.545943 2.498295,-1.287016 0.513335,-0.714776 1.059279,-2.512496 0.828382,-3.392948 -0.327671,-1.254934 -2.404148,-2.545106 -3.677491,-2.395734 z m -6.901082,2.80861 c -0.99774,0.295587 -1.923425,1.065589 -2.063329,2.161156 -0.188292,1.495296 2.128021,3.077901 3.34982,2.73971 0.779995,-0.214064 0.984592,-0.990902 1.153424,-1.686743 0.100983,-0.419188 0.152527,-0.737918 0.129912,-1.169729 -0.06838,-1.264401 -1.344874,-2.216909 -2.569827,-2.044394 z m -8.772436,1.439543 c -0.623786,0.29927 -0.85468,0.751066 -1.403779,0.968813 -0.665862,0.262979 -2.192715,0.149372 -3.132074,1.166574 -0.473888,0.513333 -1.010364,2.122236 -0.607481,2.752857 0.204598,0.31873 0.932522,0.575398 1.283335,0.731606 0.919899,0.406039 3.041084,1.315946 3.976761,1.400623 1.147112,0.100985 1.111347,-0.766845 1.238103,-1.618368 0.100983,-0.676381 0.451797,-2.847532 0.37711,-3.393475 -0.05207,-0.363962 -0.224583,-0.747385 -0.426024,-1.052965 -0.331354,-0.497556 -0.672173,-0.994585 -1.305951,-0.955665 z m 3.391897,1.394312 c -1.117659,0.604851 -1.338561,2.37943 -1.504238,3.539692 -0.05207,0.347657 -0.178825,0.958818 -0.06469,1.277022 0.116762,0.325041 0.714775,0.809447 0.984064,1.046654 0.474414,0.409721 1.319101,1.150795 1.988644,0.942515 0.79893,-0.250355 2.215856,-1.849265 2.677122,-2.56404 0.201442,-0.312417 0.454951,-0.786831 0.412876,-1.170254 -0.04891,-0.487562 -0.536476,-0.955663 -0.86783,-1.287017 -0.834694,-0.822596 -2.374695,-2.031244 -3.625946,-1.784572 z m 16.258381,0.458108 c -0.734235,0.26035 -1.224953,0.640616 -1.871354,1.0435 -1.140801,0.708463 -2.570352,1.186559 -2.680802,2.740235 -0.02577,0.406039 0.06522,0.880452 0.1236,1.287016 0.246674,1.73566 0.73108,2.78547 2.673964,2.808085 0.480726,0.0063 0.94199,0.02577 1.403781,-0.12991 2.043342,-0.685848 2.134333,-3.110511 1.887659,-4.901394 -0.09467,-0.669543 -0.386579,-2.43781 -0.990904,-2.785467 -0.221428,-0.126757 -0.31873,-0.08152 -0.545944,-0.06207 z m -7.836758,1.410618 c -1.120815,0.468102 -3.239369,1.573136 -3.859999,2.606643 -0.152527,0.25351 -0.227214,0.530164 -0.279282,0.819441 -0.341347,1.937099 2.160631,2.746022 3.671179,2.804927 0.552782,0.01946 1.416929,-0.07153 1.8682,-0.406564 1.036662,-0.773683 1.114502,-2.678173 0.721613,-3.802669 -0.335035,-0.951982 -0.913062,-2.229532 -2.121711,-2.021778 z m -16.60604,3.851582 c -1.026668,0.471259 -0.672173,1.241785 -0.233525,2.031247 0,0 2.426765,3.608065 2.426765,3.608065 0.503867,0.584863 0.968287,0.975123 1.780365,0.747383 1.163417,-0.325041 2.736027,-1.540528 2.803876,-2.834382 0.01946,-0.399726 -0.02893,-0.779993 -0.113607,-1.169727 -0.103614,-0.461791 -0.249829,-0.913587 -0.610636,-1.241784 -0.549098,-0.507023 -1.37748,-0.562248 -2.079633,-0.682167 -1.28018,-0.21459 -2.673966,-0.731606 -3.973605,-0.458635 z m 9.704957,1.384844 c -1.422713,0.337666 -1.653607,1.140802 -0.66586,2.226377 0.66586,0.73108 1.309106,0.7963 2.186403,1.059277 0.412876,0.126756 0.721613,0.305581 1.169727,0.217746 0.981437,-0.188292 1.793514,-1.764585 1.007209,-2.54458 -0.656395,-0.646926 -2.784417,-1.085574 -3.697479,-0.95882 z m 6.199457,1.293329 c -1.627838,0.520171 -2.515128,2.909069 -2.453065,4.501667 0.01631,0.370272 0.07784,0.727923 0.262979,1.052965 0.633778,1.121339 2.511445,2.096464 3.827389,1.826649 1.933419,-0.393416 3.895763,-3.568619 3.034773,-5.336887 -0.565403,-1.160259 -3.427662,-2.223219 -4.672076,-2.044394 z m 8.421097,1.631518 c -0.760008,0.169359 -1.494245,0.439174 -2.222168,0.715303 -0.246674,0.09099 -0.669018,0.207752 -0.805767,0.448641 -0.133067,0.237207 0.123601,1.368014 0.171989,1.706205 0.175669,1.297009 -0.204597,3.038979 1.803507,2.885925 1.620997,-0.119918 2.667653,-0.441804 2.69027,-2.301061 0.0095,-0.857836 -0.07469,-1.498451 -0.22406,-2.339984 -0.06837,-0.373954 -0.149897,-0.838375 -0.503866,-1.049809 -0.272972,-0.165677 -0.613791,-0.107295 -0.909905,-0.06522 z m -15.438943,0.812605 c -1.179722,0.178825 -2.911172,0.643771 -3.317736,1.940255 -0.519645,1.66781 1.845582,3.084738 3.083686,3.66329 0.529639,0.246674 1.032979,0.49703 1.637305,0.406038 1.020355,-0.149372 1.156579,-1.615213 1.406933,-2.430973 0.220902,-0.727923 0.545944,-1.972864 0.19513,-2.69132 -0.529638,-1.072427 -1.991799,-1.01089 -3.005318,-0.88729 z m 4.581086,4.495353 c -0.510179,0.301901 -0.669544,0.760535 -0.857836,1.306478 -0.136749,0.396572 -0.318729,0.864673 -0.286121,1.287017 0.107295,1.439543 1.468473,2.66818 2.878564,2.785467 0.426024,0.03577 1.036661,-0.08783 1.403779,-0.311892 0.685322,-0.416031 1.644142,-1.73934 1.332249,-2.590865 -0.139905,-0.386577 -0.532794,-0.701625 -0.864673,-0.923053 -0.730556,-0.490718 -2.76443,-1.660447 -3.605962,-1.553152 z m 8.284875,1.943412 c -1.257564,0.243518 -2.911171,1.368541 -3.027933,2.756014 -0.1499,1.755118 2.413615,2.359969 3.72956,2.675018 0.302425,0.07468 1.120815,0.247199 1.403779,0.208279 0.516491,-0.07521 0.795773,-0.585391 1.010364,-1.010889 0.425499,-0.851525 0.971442,-2.730243 0.474412,-3.617533 -0.493874,-0.87414 -2.680277,-1.124496 -3.590182,-1.010889 z"
       id="red copy"
       inkscape:connector-curvature="0"
       style="fill:#63022d;fill-opacity:1;stroke:#000000;stroke-width:0.0525957" />
    <path
       d="m -78.869616,-63.714139 m 12.634004,-3.868413 c 0.205648,0.0121 0.471782,0.02735 0.471782,0.02735 2.134861,0.09309 4.700478,0.525431 6.62548,1.482147 1.067168,0.530691 2.442019,1.431129 2.495668,2.757062 0.05628,1.390104 -1.341191,2.342087 -2.442019,2.892764 -2.116452,1.058751 -4.705737,1.444277 -7.150911,1.538949 0.0053,0.542788 -0.0011,0.90412 -0.0011,1.167099 3.408202,-0.102561 6.937374,-0.955137 9.632377,-3.045291 0,0 -0.03787,1.661498 0.01579,2.987962 0.05628,1.390104 -1.340663,2.342086 -2.441491,2.892237 -2.132755,1.06664 -4.746236,1.450589 -7.207714,1.541579 -0.0058,0.560672 -0.01262,0.88992 -0.01578,1.157107 3.417669,-0.09835 6.946313,-0.959346 9.649207,-3.056337 0,0 -0.03787,1.734606 0.01579,3.060545 0.05628,1.390103 -1.340663,2.342611 -2.441492,2.892762 -2.131178,1.065589 -4.778845,1.476887 -7.238745,1.568404 0.0015,0.519646 -0.0021,0.898862 0.0032,1.13817 3.402415,-0.10519 6.935267,-0.95987 9.625011,-3.045816 0,0 -0.0015,1.118184 0.05207,2.444123 0.05628,1.390103 -1.340663,2.342085 -2.441491,2.892762 -2.141697,1.071375 -4.767799,1.453746 -7.23822,1.542632 -0.01472,0.496503 0.0026,0.794721 -0.03208,1.145535 5.012896,-0.163573 9.719158,-1.812449 10.81841,-4.982916 0,0 -0.07258,-17.130416 0,-17.166708 -1.26966,-3.470262 -5.938581,-4.989226 -10.776333,-5.091261 0.0079,0.750014 0.01472,1.144482 0.02262,1.25914 z"
       id="db half"
       inkscape:connector-curvature="0"
       style="fill:#63022d;fill-opacity:1;stroke:#000000;stroke-width:0.0525957" />
    <path
       d="m -37.918154,-66.365755 c 0,0.375534 -0.304004,0.680062 -0.679536,0.680062 -0.375533,0 -0.680062,-0.317678 -0.680062,-0.69321 0,-0.375533 0.304529,-0.666914 0.680062,-0.666914 0.470205,-0.04523 0.692685,0.441804 0.679536,0.680062 z m -25.801872,37.957785 c 0,0.375535 -0.291381,0.680064 -0.666914,0.680064 -0.375532,0 -0.679537,-0.304529 -0.679537,-0.680064 0,-0.375533 0.290855,-0.680061 0.666388,-0.680061 0.470731,-0.04523 0.693211,0.441278 0.680063,0.680061 z m 8.102894,5.043928 c 0,0.375008 -0.304003,0.679536 -0.679535,0.679536 -0.375535,0 -0.680064,-0.304528 -0.680064,-0.679536 0,-0.375533 0.304529,-0.680061 0.680064,-0.680061 0.470205,-0.04523 0.692683,0.441278 0.679535,0.680061 z m 4.537956,-9.22581 c 0,0.375533 -0.304003,0.679536 -0.679536,0.679536 -0.375533,0 -0.680061,-0.304003 -0.680061,-0.679536 0,-0.375533 0.291379,-0.680064 0.666913,-0.680064 0.470206,-0.04523 0.705834,0.441278 0.692684,0.680064 z m 10.173587,-0.763165 c 0,0.375535 -0.304529,0.679538 -0.680062,0.679538 -0.375535,0 -0.640616,-0.280862 -0.640616,-0.656395 0,-0.375533 0.265081,-0.703204 0.640616,-0.703204 0.470731,-0.04523 0.693212,0.441278 0.680062,0.680061 z m 3.036875,-10.748455 c 0,0.375007 -0.304529,0.679536 -0.680062,0.679536 -0.375533,0 -0.680063,-0.304529 -0.680063,-0.679536 0,-0.375535 0.30453,-0.680064 0.680063,-0.680064 0.470206,-0.04523 0.692686,0.441278 0.680062,0.680064 z m 3.244103,-11.131881 c 0,0.375535 -0.304528,0.679538 -0.680063,0.679538 -0.375533,0 -0.679536,-0.304003 -0.679536,-0.679538 0,-0.375533 0.304003,-0.680062 0.679536,-0.680062 0.470733,-0.04523 0.693211,0.441279 0.680063,0.680062 z M -45.75386,-71.387589 c 0,0.375532 -0.304531,0.680061 -0.680063,0.680061 -0.375533,0 -0.680062,-0.304529 -0.680062,-0.680061 0,-0.375007 0.304529,-0.679536 0.680062,-0.679536 0.470732,-0.04523 0.692685,0.441278 0.680063,0.679536 z m -1.103458,-9.347829 c 0,0.375007 -0.304529,0.679536 -0.680064,0.679536 -0.375007,0 -0.679535,-0.304529 -0.679535,-0.679536 0,-0.375534 0.304528,-0.680063 0.679535,-0.680063 0.470733,-0.04523 0.693212,0.441278 0.680064,0.680063 z m -9.779117,-5.33636 c 0,0.375534 -0.304531,0.680063 -0.680064,0.680063 -0.375533,0 -0.679536,-0.304529 -0.679536,-0.680063 0,-0.375533 0.304003,-0.679536 0.679536,-0.679536 0.470731,-0.04523 0.693211,0.441278 0.680064,0.679536 z m -6.956836,18.374828 c 0,0 6.110044,-17.785756 6.110044,-17.785756 m 1.674121,25.447367 c 0,0 16.935814,-6.206289 16.935814,-6.206289 m -20.757943,-0.298218 c 0,0 11.711483,-13.876316 11.711483,-13.876316 m 5.969612,46.57348 c 0,0 -14.279731,-11.974463 -14.279731,-11.974463 m 4.128762,12.763397 c 0,0 -6.942633,-10.203565 -6.942633,-10.203565 m 23.11581,-11.96552 c 0,0 -20.012663,0.473361 -20.012663,0.473361 m 9.099056,-16.330959 c 0,0 -9.41463,6.863734 -9.41463,6.863734 m -0.184086,40.20941 c 0,0 -5.60144,-18.250707 -5.60144,-18.250707 m -2.366809,13.411903 c 0,0 -0.525957,-12.885945 -0.525957,-12.885945 m 25.850786,-2.603488 c 0,0 -17.014708,-5.443654 -17.014708,-5.443654"
       id="corrected copy"
       inkscape:connector-curvature="0"
       style="fill:#63022d;fill-opacity:1;stroke:#63022d;stroke-width:1.213;stroke-miterlimit:4;stroke-dasharray:none;stroke-opacity:1" />
    <path
       d="m -68.087493,-18.08658 c -0.1236,0 -0.308737,-0.01 -0.435491,-0.01 -4.567936,-0.05523 -9.883257,-1.485307 -13.97047,-3.497094 -16.14793,-7.943528 -24.263966,-26.511913 -18.295416,-43.630759 3.703793,-10.621174 12.083338,-19.007033 22.843892,-22.416286 2.979548,-0.916742 6.569728,-1.332774 7.501724,-1.426921 0,0 1.322782,-0.146217 2.378378,-0.146217 -0.02893,1.534218 -0.02262,70.090604 -0.02262,71.127266 z m 1.900809,-71.149881 c 5.019734,0.207752 8.993338,1.153424 12.90488,2.827545 5.341619,2.284756 10.156756,5.626161 13.850552,10.134139 10.58541,12.915925 10.58541,32.261147 0,45.177598 -3.333517,4.066174 -7.501726,7.196143 -12.196417,9.503516 -4.867205,2.395208 -9.406214,3.325101 -14.569008,3.477628 -0.02262,-1.221797 0.01,-71.120426 0.01,-71.120426 z m -0.02262,-1.703048 c 3.983071,0.01946 8.983345,1.130807 12.956948,2.703945 4.165054,1.650978 8.08659,4.056179 11.371717,7.114618 14.909827,13.872117 16.228928,37.412897 2.544053,52.624098 -3.294593,3.662764 -6.911074,6.357242 -11.31649,8.528393 -6.02063,2.970604 -11.55054,3.899971 -18.194429,3.822129 -3.171521,-0.03892 -7.385486,-0.936202 -10.397117,-1.950249 -20.920468,-7.06255 -30.875258,-30.268823 -22.278488,-50.377735 4.389113,-10.274043 13.181009,-17.928294 23.903169,-20.986735 2.650824,-0.757378 4.701005,-1.205492 6.861634,-1.387474 1.903964,-0.08468 2.609272,-0.08783 4.549003,-0.09099 z m 0.08415,1.683588"
       id="beige"
       inkscape:connector-curvature="0"
       style="fill:#f9f9f9;fill-rule:evenodd;stroke:#000000;stroke-width:0.05255441;stroke-miterlimit:4;stroke-dasharray:none;stroke-opacity:0.94117647" />
    <flowRoot
       xml:space="preserve"
       id="flowRoot847"
       style="font-style:normal;font-weight:normal;font-size:40px;line-height:1.25;font-family:sans-serif;letter-spacing:0px;word-spacing:0px;fill:#000000;fill-opacity:1;stroke:none"
       transform="matrix(0.04930858,0,0,0.04930858,-106.21201,-100.65618)"><flowRegion
         id="flowRegion849"><rect
           id="rect851"
           width="1617.1428"
           height="397.14285"
           x="-2.8571429"
           y="1800.1906" /></flowRegion><flowPara
         id="flowPara853" /></flowRoot>    <flowRoot
       xml:space="preserve"
       id="flowRoot855"
       style="font-style:normal;font-weight:normal;font-size:40px;line-height:1.25;font-family:sans-serif;letter-spacing:0px;word-spacing:0px;fill:#000000;fill-opacity:1;stroke:none"
       transform="matrix(0.04930858,0,0,0.04930858,-106.21201,-100.65618)"><flowRegion
         id="flowRegion857"><rect
           id="rect859"
           width="1408.5714"
           height="277.14285"
           x="54.285713"
           y="1863.0477" /></flowRegion><flowPara
         id="flowPara861" /></flowRoot>    <text
       xml:space="preserve"
       style="font-style:normal;font-weight:normal;font-size:1.97234321px;line-height:1.25;font-family:sans-serif;letter-spacing:0px;word-spacing:0px;fill:#000000;fill-opacity:1;stroke:none;stroke-width:0.04930858"
       x="-100.85851"
       y="-10.482521"
       id="text865"><tspan
         sodipodi:role="line"
         id="tspan863"
         x="-100.85851"
         y="-8.7374592"
         style="stroke-width:0.04930858" /></text>
    <flowRoot
       xml:space="preserve"
       id="flowRoot867"
       style="font-style:normal;font-weight:normal;font-size:40px;line-height:1.25;font-family:sans-serif;letter-spacing:0px;word-spacing:0px;fill:#000000;fill-opacity:1;stroke:none"
       transform="matrix(0.04930858,0,0,0.04930858,-106.21201,-100.65618)"><flowRegion
         id="flowRegion869"><rect
           id="rect871"
           width="374.28571"
           height="48.571426"
           x="-128.57143"
           y="1825.9048" /></flowRegion><flowPara
         id="flowPara873" /></flowRoot>    <flowRoot
       xml:space="preserve"
       id="flowRoot875"
       style="font-style:normal;font-weight:normal;font-size:40px;line-height:1.25;font-family:sans-serif;letter-spacing:0px;word-spacing:0px;fill:#000000;fill-opacity:1;stroke:none"
       transform="matrix(0.04930858,0,0,0.04930858,-106.21201,-100.65618)"><flowRegion
         id="flowRegion877"><rect
           id="rect879"
           width="1405.7142"
           height="591.42859"
           x="45.714287"
           y="1785.9048" /></flowRegion><flowPara
         id="flowPara881" /></flowRoot>    <flowRoot
       xml:space="preserve"
       id="flowRoot883"
       style="font-style:normal;font-weight:normal;font-size:40px;line-height:1.25;font-family:sans-serif;letter-spacing:0px;word-spacing:0px;fill:#000000;fill-opacity:1;stroke:none"
       transform="matrix(0.04930858,0,0,0.04930858,-106.21201,-100.65618)"><flowRegion
         id="flowRegion885"><rect
           id="rect887"
           width="1345.7142"
           height="480"
           x="74.285713"
           y="1788.762" /></flowRegion><flowPara
         id="flowPara889" /></flowRoot>    <flowRoot
       xml:space="preserve"
       id="flowRoot891"
       style="font-style:normal;font-weight:normal;font-size:40px;line-height:1.25;font-family:sans-serif;letter-spacing:0px;word-spacing:0px;fill:#000000;fill-opacity:1;stroke:none"
       transform="matrix(0.04930858,0,0,0.04930858,-106.21201,-100.65618)"><flowRegion
         id="flowRegion893"><rect
           id="rect895"
           width="1240"
           height="400"
           x="31.428572"
           y="1820.1906" /></flowRegion><flowPara
         id="flowPara897" /></flowRoot>    <text
       xml:space="preserve"
       style="font-style:normal;font-variant:normal;font-weight:normal;font-stretch:normal;font-size:1.97234321px;line-height:1.25;font-family:GradoGradooNF;-inkscape-font-specification:'GradoGradooNF, Normal';font-variant-ligatures:normal;font-variant-caps:normal;font-variant-numeric:normal;font-feature-settings:normal;text-align:start;letter-spacing:0px;word-spacing:0px;writing-mode:lr-tb;text-anchor:start;fill:#000000;fill-opacity:1;stroke:none;stroke-width:0.04930858"
       x="-83.53006"
       y="-5.4107795"
       id="text901"><tspan
         sodipodi:role="line"
         id="tspan899"
         x="-83.53006"
         y="-3.5896518"
         style="stroke-width:0.04930858" /></text>
    <flowRoot
       xml:space="preserve"
       id="flowRoot903"
       style="font-style:normal;font-variant:normal;font-weight:normal;font-stretch:normal;font-size:40px;line-height:1.25;font-family:GradoGradooNF;-inkscape-font-specification:'GradoGradooNF, Normal';font-variant-ligatures:normal;font-variant-caps:normal;font-variant-numeric:normal;font-feature-settings:normal;text-align:start;letter-spacing:0px;word-spacing:0px;writing-mode:lr-tb;text-anchor:start;fill:#000000;fill-opacity:1;stroke:none"
       transform="matrix(0.04930858,0,0,0.04930858,-106.21201,-100.65618)"><flowRegion
         id="flowRegion905"><rect
           id="rect907"
           width="1200"
           height="274.28571"
           x="131.42857"
           y="1860.1906" /></flowRegion><flowPara
         id="flowPara909" /></flowRoot>    <flowRoot
       xml:space="preserve"
       id="flowRoot911"
       style="font-style:normal;font-variant:normal;font-weight:normal;font-stretch:normal;font-size:40px;line-height:1.25;font-family:GradoGradooNF;-inkscape-font-specification:'GradoGradooNF, Normal';font-variant-ligatures:normal;font-variant-caps:normal;font-variant-numeric:normal;font-feature-settings:normal;text-align:start;letter-spacing:0px;word-spacing:0px;writing-mode:lr-tb;text-anchor:start;fill:#000000;fill-opacity:1;stroke:none"
       transform="matrix(0.04930858,0,0,0.04930858,-106.21201,-100.65618)"><flowRegion
         id="flowRegion913"><rect
           id="rect915"
           width="1577.1428"
           height="305.71429"
           x="17.142857"
           y="1803.0477" /></flowRegion><flowPara
         id="flowPara917" /></flowRoot>    <g
       aria-label="DADESS"
       style="font-style:normal;font-variant:normal;font-weight:normal;font-stretch:normal;font-size:31.33062363px;line-height:1.25;font-family:GradoGradooNF;-inkscape-font-specification:'GradoGradooNF, Normal';font-variant-ligatures:normal;font-variant-caps:normal;font-variant-numeric:normal;font-feature-settings:normal;text-align:start;letter-spacing:0px;word-spacing:0px;writing-mode:lr-tb;text-anchor:start;fill:#aa0000;fill-opacity:1;stroke:none;stroke-width:2.75376463;stroke-miterlimit:4;stroke-dasharray:none"
       id="text921">
      <path
         d="m 36.945841,-56.870477 q 0,15.861129 -11.259444,27.120572 -11.161535,11.161536 -26.9247555,11.161536 h -4.0142363 v -76.662123 h 4.0142363 q 15.7632205,0 26.9247555,11.259443 11.259444,11.259443 11.259444,27.120572 z m -8.028473,0 q 0,-11.357351 -7.538932,-19.875365 -7.441023,-8.518014 -18.6025582,-9.986637 v 59.724004 q 11.1615352,-1.566531 18.6025582,-9.986637 7.538932,-8.518013 7.538932,-19.875365 z"
         style="fill:#ffffff;stroke:#63022d;stroke-width:2.75376463;stroke-miterlimit:4;stroke-dasharray:none;stroke-opacity:1"
         id="path5872"
         inkscape:connector-curvature="0" />
      <path
         d="m 81.838282,-18.588369 h -8.028473 v -57.276299 q 0,-4.89541 -3.524695,-8.420106 -3.524696,-3.622603 -8.518014,-3.622603 -4.993318,0 -8.615922,3.622603 -3.524695,3.524696 -3.524695,8.420106 v 57.276299 H 41.59801 v -57.276299 q 0,-8.322197 5.874492,-14.19669 5.972401,-5.9724 14.294598,-5.9724 8.322197,0 14.196689,5.9724 5.874493,5.874493 5.874493,14.19669 z M 70.970471,-36.799295 q 0,3.916328 -2.74143,6.657758 -2.643521,2.741429 -6.559849,2.741429 -3.81842,0 -6.55985,-2.741429 -2.643521,-2.74143 -2.643521,-6.657758 0,-3.81842 2.643521,-6.55985 2.74143,-2.741429 6.55985,-2.741429 3.916328,0 6.559849,2.741429 2.74143,2.74143 2.74143,6.55985 z"
         style="fill:#ffffff;stroke:#63022d;stroke-width:2.75376463;stroke-miterlimit:4;stroke-dasharray:none;stroke-opacity:1"
         id="path5874"
         inkscape:connector-curvature="0" />
      <path
         d="m 128.73478,-56.870477 q 0,15.861129 -11.25944,27.120572 -11.16154,11.161536 -26.924758,11.161536 h -4.014236 v -76.662123 h 4.014236 q 15.763218,0 26.924758,11.259443 11.25944,11.259443 11.25944,27.120572 z m -8.02847,0 q 0,-11.357351 -7.53893,-19.875365 -7.44103,-8.518014 -18.602562,-9.986637 v 59.724004 q 11.161532,-1.566531 18.602562,-9.986637 7.53893,-8.518013 7.53893,-19.875365 z"
         style="fill:#ffffff;stroke:#63022d;stroke-width:2.75376463;stroke-miterlimit:4;stroke-dasharray:none;stroke-opacity:1"
         id="path5876"
         inkscape:connector-curvature="0" />
      <path
         d="m 172.64814,-46.785932 h -29.37246 q 3.03515,8.811738 10.7699,14.490414 7.83265,5.580768 17.52557,5.580768 v 8.126381 q -15.76322,0 -27.02267,-11.259444 -11.16153,-11.259443 -11.16153,-27.022664 0,-15.861129 11.16153,-27.120572 11.25945,-11.259443 27.02267,-11.259443 v 8.224289 q -12.53225,0 -21.34399,8.811738 -8.71383,8.811738 -8.71383,21.343988 v 1.860256 h 31.13481 z"
         style="fill:#63022d;fill-opacity:1;stroke-width:2.75376463;stroke-miterlimit:4;stroke-dasharray:none"
         id="path5878"
         inkscape:connector-curvature="0" />
      <path
         d="m 211.63703,-94.173502 -3.72052,7.147299 q -1.76234,-0.881174 -3.72051,-0.881174 -3.32888,0 -5.58076,2.349797 -2.25189,2.251888 -2.25189,5.482859 0,1.66444 0.68535,3.230971 l 11.74899,26.728939 q 2.05607,4.699594 2.05607,10.084545 0,9.399188 -6.75567,16.056945 -6.75566,6.657758 -16.15485,6.55985 -5.48286,0 -10.57408,-2.74143 l 3.81841,-7.147298 q 3.23098,1.664439 6.95149,1.664439 6.07031,0 10.37827,-4.210053 4.30796,-4.307961 4.30796,-10.378269 0,-3.328879 -1.46863,-6.657758 l -11.74898,-26.72894 q -1.37071,-3.133062 -1.37071,-6.266125 0,-6.657757 4.60168,-11.357351 4.69959,-4.797502 11.25944,-4.797502 4.11215,0 7.53894,1.860256 z"
         style="fill:#63022d;fill-opacity:1;stroke-width:2.75376463;stroke-miterlimit:4;stroke-dasharray:none"
         id="path5880"
         inkscape:connector-curvature="0" />
      <path
         d="m 250.64733,-94.173502 -3.72052,7.147299 q -1.76234,-0.881174 -3.72051,-0.881174 -3.32888,0 -5.58077,2.349797 -2.25188,2.251888 -2.25188,5.482859 0,1.66444 0.68535,3.230971 l 11.74899,26.728939 q 2.05607,4.699594 2.05607,10.084545 0,9.399188 -6.75567,16.056945 -6.75566,6.657758 -16.15485,6.55985 -5.48286,0 -10.57409,-2.74143 l 3.81842,-7.147298 q 3.23098,1.664439 6.95149,1.664439 6.07031,0 10.37827,-4.210053 4.30796,-4.307961 4.30796,-10.378269 0,-3.328879 -1.46863,-6.657758 l -11.74898,-26.72894 q -1.37071,-3.133062 -1.37071,-6.266125 0,-6.657757 4.60168,-11.357351 4.69959,-4.797502 11.25944,-4.797502 4.11215,0 7.53894,1.860256 z"
         style="fill:#63022d;fill-opacity:1;stroke-width:2.75376463;stroke-miterlimit:4;stroke-dasharray:none"
         id="path5882"
         inkscape:connector-curvature="0" />
    </g>
  </g>
</svg>
